<svg width="704" height="442" viewBox="0 0 704 442" fill="none" xmlns="http://www.w3.org/2000/svg">
<path d="M0.213074 0.237915L103.581 0.267887C138.09 40.7094 172.352 81.3615 206.363 122.222L283.032 215.312L283.087 114.257C315.913 113.939 350.255 113.98 383.062 114.308C382.48 144.346 382.976 176.122 382.976 206.311L382.946 382.367L285.856 382.392C281.581 376.893 277.214 371.475 272.755 366.123L100.531 154.438C100.121 180.653 100.455 207.695 100.457 233.957L100.443 382.38L0.221034 382.355L0.213074 0.237915Z" fill="#FEFEFE"/>
<path d="M278.871 0.28136C326.094 -0.337068 374.612 0.256844 421.943 0.256844L703.083 0.2697L703.028 88.2738L554.795 88.3191L554.789 382.38L451.377 382.349L452.846 88.3271L281.733 88.2769C281.107 59.3908 279.944 29.1889 278.871 0.28136Z" fill="#FEFEFE"/>
<path d="M0 416.375L700.162 416.301L700.028 441.437L0.153674 441.357C0.00733331 433.091 0.0465352 424.659 0 416.375Z" fill="#03F8F6" fill-opacity="0.988235"/>
</svg>
